<?xml version="1.0" standalone="no"?>
        <!DOCTYPE svg PUBLIC "-//W3C//DTD SVG 1.1//EN" 
        "http://www.w3.org/Graphics/SVG/1.1/DTD/svg11.dtd">  <svg xmlns="http://www.w3.org/2000/svg" xmlns:xlink="http://www.w3.org/1999/xlink" width="40" zoomAndPan="magnify" viewBox="0 0 30 30.000001" height="40" preserveAspectRatio="xMidYMid meet" version="1.0"><defs><clipPath id="id1"><path d="M 2.445312 5.613281 L 27.121094 5.613281 L 27.121094 12 L 2.445312 12 Z M 2.445312 5.613281 " clip-rule="nonzero"/></clipPath><clipPath id="id2"><path d="M 2.445312 11 L 27.121094 11 L 27.121094 18 L 2.445312 18 Z M 2.445312 11 " clip-rule="nonzero"/></clipPath><clipPath id="id3"><path d="M 2.445312 17 L 27.121094 17 L 27.121094 23.761719 L 2.445312 23.761719 Z M 2.445312 17 " clip-rule="nonzero"/></clipPath></defs><g clip-path="url(#id1)"><path fill="rgb(79.998779%, 12.939453%, 17.649841%)" d="M 24.375 5.613281 L 5.191406 5.613281 C 3.675781 5.613281 2.449219 6.863281 2.449219 8.40625 L 2.449219 11.894531 L 27.117188 11.894531 L 27.117188 8.40625 C 27.117188 6.863281 25.890625 5.613281 24.375 5.613281 Z M 24.375 5.613281 " fill-opacity="1" fill-rule="nonzero"/></g><g clip-path="url(#id2)"><path fill="rgb(98.429871%, 81.959534%, 8.628845%)" d="M 13.019531 17.480469 L 16.570312 17.480469 L 14.792969 16.164062 Z M 15.476562 14.03125 L 17.679688 14.03125 L 15.894531 15.347656 L 16.574219 17.480469 L 27.117188 17.480469 L 27.117188 11.894531 L 14.792969 11.894531 Z M 13.691406 15.347656 L 11.910156 14.03125 L 14.113281 14.03125 L 14.792969 11.894531 L 2.449219 11.894531 L 2.449219 17.480469 L 13.011719 17.480469 Z M 13.691406 15.347656 " fill-opacity="1" fill-rule="nonzero"/></g><g clip-path="url(#id3)"><path fill="rgb(15.689087%, 52.159119%, 25.489807%)" d="M 16.578125 17.484375 L 16.570312 17.480469 L 13.015625 17.480469 L 13.011719 17.484375 L 13.011719 17.480469 L 2.449219 17.480469 L 2.449219 20.96875 C 2.449219 22.511719 3.675781 23.761719 5.191406 23.761719 L 24.375 23.761719 C 25.890625 23.761719 27.117188 22.511719 27.117188 20.96875 L 27.117188 17.480469 L 16.574219 17.480469 Z M 16.578125 17.484375 " fill-opacity="1" fill-rule="nonzero"/></g><path fill="rgb(0%, 0%, 0%)" d="M 11.910156 14.03125 L 13.691406 15.347656 L 13.011719 17.480469 L 13.011719 17.484375 L 13.019531 17.480469 L 14.792969 16.164062 L 16.570312 17.480469 L 16.578125 17.484375 L 16.574219 17.480469 L 15.894531 15.347656 L 17.679688 14.03125 L 15.476562 14.03125 L 14.792969 11.894531 L 14.113281 14.03125 Z M 11.910156 14.03125 " fill-opacity="1" fill-rule="nonzero"/></svg>  